<svg xmlns="http://www.w3.org/2000/svg" viewBox="0 0 512 512" width="512" height="512">
  <defs>
    <linearGradient id="bgWood" x1="0" y1="0" x2="0" y2="1">
      <stop offset="0" stop-color="#a6692f"/>
      <stop offset="1" stop-color="#6e431b"/>
    </linearGradient>
  </defs>
  <rect width="512" height="512" rx="64" fill="url(#bgWood)"/>
  <rect x="48" y="64" width="416" height="384" rx="28" fill="#f3e2c7"/>
  <!-- Mittelbalken -->
  <rect x="244" y="64" width="24" height="384" fill="#6e431b"/>

  <!-- obere Dreiecke -->
  <g>
    <polygon points="64,80 128,80 96,236" fill="#b5651d"/>
    <polygon points="128,80 192,80 160,236" fill="#e6b787"/>
    <polygon points="192,80 244,80 218,236" fill="#b5651d"/>
    <polygon points="268,80 320,80 294,236" fill="#e6b787"/>
    <polygon points="320,80 384,80 352,236" fill="#b5651d"/>
    <polygon points="384,80 448,80 416,236" fill="#e6b787"/>
  </g>
  <!-- untere Dreiecke -->
  <g>
    <polygon points="64,432 128,432 96,276" fill="#e6b787"/>
    <polygon points="128,432 192,432 160,276" fill="#b5651d"/>
    <polygon points="192,432 244,432 218,276" fill="#e6b787"/>
    <polygon points="268,432 320,432 294,276" fill="#b5651d"/>
    <polygon points="320,432 384,432 352,276" fill="#e6b787"/>
    <polygon points="384,432 448,432 416,276" fill="#b5651d"/>
  </g>

  <!-- Spielsteine -->
  <circle cx="96" cy="110" r="26" fill="#f7f3ea" stroke="#cbbfa6" stroke-width="3"/>
  <circle cx="96" cy="160" r="26" fill="#f7f3ea" stroke="#cbbfa6" stroke-width="3"/>
  <circle cx="416" cy="402" r="26" fill="#2b2b36" stroke="#0f0f16" stroke-width="3"/>
  <circle cx="416" cy="352" r="26" fill="#2b2b36" stroke="#0f0f16" stroke-width="3"/>

  <!-- Würfel -->
  <g transform="rotate(-12 300 300)">
    <rect x="300" y="232" width="84" height="84" rx="16" fill="#ffffff" stroke="#cbbfa6" stroke-width="4"/>
    <circle cx="326" cy="258" r="9" fill="#7c2d12"/>
    <circle cx="358" cy="290" r="9" fill="#7c2d12"/>
    <circle cx="342" cy="274" r="9" fill="#7c2d12"/>
  </g>
  <g transform="rotate(8 180 320)">
    <rect x="150" y="288" width="76" height="76" rx="14" fill="#ffffff" stroke="#cbbfa6" stroke-width="4"/>
    <circle cx="172" cy="310" r="8" fill="#7c2d12"/>
    <circle cx="204" cy="310" r="8" fill="#7c2d12"/>
    <circle cx="172" cy="342" r="8" fill="#7c2d12"/>
    <circle cx="204" cy="342" r="8" fill="#7c2d12"/>
  </g>
</svg>
