<svg xmlns="http://www.w3.org/2000/svg" viewBox="0 0 512 512">
  
  <defs>
    <linearGradient id="lc" x1="0" y1="0" x2="0" y2="1">
      <stop offset="0" stop-color="#38bdf8" />
      <stop offset="1" stop-color="#6366f1" />
    </linearGradient>
  </defs>
  <rect x="0" y="0" width="512" height="512" rx="112" fill="url(#lc)" />
  
  <!-- Anker (links) -->
  <g fill="none" stroke="#ffffff" stroke-width="20"
     stroke-linecap="round" stroke-linejoin="round"
     transform="translate(150 256) scale(0.62) translate(-256 -256)">
    <line x1="256" y1="152" x2="256" y2="398" />
    <circle cx="256" cy="122" r="30" />
    <line x1="198" y1="184" x2="314" y2="184" />
    <path d="M148 298 A108 108 0 0 0 364 298" />
    <path d="M148 298 L120 256" />
    <path d="M364 298 L392 256" />
  </g>
  <!-- Stift (rechts) -->
  <g transform="translate(330 256) rotate(30) scale(0.9)">
    <rect x="-22" y="-120" width="44" height="200" rx="10" fill="#fbbf24" stroke="#f59e0b" stroke-width="4" />
    <rect x="-22" y="-120" width="44" height="34" fill="#f472b6" />
    <polygon points="-22,80 22,80 0,128" fill="#fde68a" stroke="#f59e0b" stroke-width="4" />
    <polygon points="-11,108 11,108 0,128" fill="#1f2937" />
  </g>
</svg>